<svg xmlns="http://www.w3.org/2000/svg" width="25pt" height="25pt" viewBox="0 0 25 25" version="1.1" style="/*! color: #000; */">
<g id="#000">
<path opacity="1.00" d=" M 0.00 11.14 C 0.88 2.45 12.08 -2.07 18.97 3.00 C 25.67 7.06 25.67 17.86 18.99 21.95 C 12.14 26.99 1.11 22.61 0.00 14.05 L 0.00 11.14 M 8.36 3.57 C 2.02 5.60 -0.15 14.63 4.86 19.14 C 9.82 24.51 20.01 22.05 21.68 14.84 C 23.96 7.40 15.25 0.47 8.36 3.57 Z" fill="#000"/>
<path opacity="1.00" d=" M 10.04 8.20 C 12.43 9.31 14.55 10.87 16.55 12.56 C 14.49 14.13 12.39 15.67 10.05 16.80 C 9.98 13.93 9.98 11.06 10.04 8.20 Z" fill="#000"/>
</g>
</svg>