<?xml version="1.0" encoding="UTF-8" ?>
<!DOCTYPE svg PUBLIC "-//W3C//DTD SVG 1.1//EN" "http://www.w3.org/Graphics/SVG/1.1/DTD/svg11.dtd">
<svg width="20pt" height="127pt" viewBox="0 0 20 127" version="1.1" xmlns="http://www.w3.org/2000/svg">
<g id="#ffffffff">
<path fill="#ffffff" opacity="1.00" d=" M 6.49 0.00 L 13.56 0.00 C 16.09 1.48 18.23 3.49 20.00 5.82 L 20.00 23.85 C 18.47 26.01 16.86 28.34 14.33 29.41 C 8.83 31.67 2.17 29.08 0.00 23.41 L 0.00 6.19 C 1.64 3.63 3.74 1.38 6.49 0.00 M 4.19 2.30 C 2.20 3.87 0.78 6.40 0.86 8.96 C 0.81 13.60 0.81 18.24 1.06 22.87 C 2.46 29.95 12.70 31.09 17.19 26.41 C 20.22 22.96 18.68 18.15 19.01 14.01 C 18.80 10.96 19.83 7.57 17.99 4.86 C 16.78 1.98 13.48 1.69 10.88 0.84 C 11.02 3.53 12.67 6.04 11.88 8.79 C 11.29 10.48 10.93 12.22 10.84 14.01 C 10.42 14.01 9.58 14.01 9.16 14.01 C 9.22 11.00 7.33 8.24 8.11 5.21 C 8.57 3.79 9.03 2.36 9.14 0.86 C 7.48 1.32 5.84 1.81 4.19 2.30 M 9.01 5.00 C 9.00 6.33 9.00 7.67 9.01 9.00 C 9.50 9.00 10.49 9.00 10.99 9.00 C 11.00 7.67 11.00 6.33 10.99 5.00 C 10.50 5.00 9.50 5.00 9.01 5.00 Z" />
<path fill="#ffffff" opacity="1.00" d=" M 10.00 53.00 L 11.00 52.99 C 11.00 77.07 11.00 101.16 11.00 125.24 C 12.73 123.69 14.32 121.97 16.29 120.73 C 14.77 123.10 12.57 124.90 10.72 127.00 L 10.28 127.00 C 8.38 124.95 6.23 123.10 4.71 120.74 C 6.67 121.99 8.25 123.73 10.00 125.24 C 10.00 101.16 10.00 77.08 10.00 53.00 Z" />
</g>
</svg>
