<?xml version="1.0" encoding="UTF-8" ?>
<!DOCTYPE svg PUBLIC "-//W3C//DTD SVG 1.1//EN" "http://www.w3.org/Graphics/SVG/1.1/DTD/svg11.dtd">
<svg width="512pt" height="512pt" viewBox="0 0 512 512" version="1.1" xmlns="http://www.w3.org/2000/svg">
<g id="#000000ff">
<path fill="#000000" opacity="1.00" d=" M 246.36 21.55 C 286.99 19.84 328.05 28.95 364.09 47.81 C 417.07 75.18 458.78 123.52 477.95 180.01 C 492.53 222.23 494.58 268.64 483.86 312.00 C 475.22 347.23 458.27 380.38 434.75 407.99 C 411.95 434.87 382.99 456.48 350.73 470.67 C 311.19 488.18 266.76 494.42 223.93 488.43 C 175.30 481.82 128.98 459.43 93.63 425.37 C 68.18 401.03 48.33 370.87 36.09 337.84 C 21.06 297.61 17.40 253.23 25.68 211.09 C 34.76 164.19 58.58 120.28 93.03 87.17 C 133.86 47.56 189.50 23.68 246.36 21.55 M 245.28 64.31 C 226.89 65.34 208.65 69.03 191.31 75.25 C 156.19 87.71 124.96 110.76 102.59 140.56 C 80.70 169.53 67.37 204.85 64.59 241.05 C 61.77 276.31 69.03 312.29 85.24 343.73 C 99.16 370.92 119.72 394.67 144.63 412.36 C 169.51 430.12 198.70 441.79 228.98 446.07 C 257.88 450.19 287.72 447.55 315.47 438.50 C 351.79 426.71 384.31 403.71 407.66 373.52 C 432.41 341.82 446.70 302.16 447.85 261.97 C 449.20 223.51 438.44 184.77 417.63 152.41 C 398.97 123.18 372.20 99.20 341.08 83.90 C 311.55 69.25 278.19 62.41 245.28 64.31 Z" />
<path fill="#000000" opacity="1.00" d=" M 251.36 128.51 C 257.34 127.17 263.87 128.54 268.76 132.24 C 274.83 136.69 278.17 144.54 277.14 152.00 C 276.30 159.24 271.41 165.86 264.74 168.78 C 258.13 171.81 249.97 171.12 244.01 166.94 C 237.27 162.49 233.58 153.97 234.94 146.00 C 236.15 137.53 243.00 130.27 251.36 128.51 Z" />
<path fill="#000000" opacity="1.00" d=" M 251.40 192.50 C 258.75 190.82 266.87 193.41 271.86 199.08 C 275.53 203.10 277.43 208.55 277.33 213.97 C 277.34 261.65 277.33 309.34 277.34 357.02 C 277.40 362.10 277.58 367.47 275.12 372.09 C 271.13 380.49 261.24 385.47 252.12 383.63 C 242.39 382.00 234.62 372.87 234.69 362.98 C 234.65 312.99 234.65 263.01 234.69 213.02 C 234.63 203.39 241.98 194.42 251.40 192.50 Z" />
</g>
</svg>
