<?xml version="1.0" encoding="UTF-8" ?>
<!DOCTYPE svg PUBLIC "-//W3C//DTD SVG 1.1//EN" "http://www.w3.org/Graphics/SVG/1.1/DTD/svg11.dtd">
<svg width="212pt" height="24pt" viewBox="0 0 212 24" version="1.1" xmlns="http://www.w3.org/2000/svg">
<g id="#ffffffff">
<path fill="#ffffff" opacity="1.00" d=" M 0.00 0.00 L 5.71 0.00 C 7.18 5.76 8.48 11.56 9.96 17.31 C 11.52 11.55 12.98 5.76 14.53 0.00 L 18.44 0.00 C 20.12 5.73 21.47 11.56 23.04 17.33 C 24.55 11.57 25.72 5.74 27.29 0.00 L 33.04 0.00 C 30.63 7.97 28.51 16.03 26.11 24.00 L 20.67 24.00 C 19.32 18.53 17.97 13.06 16.49 7.63 C 15.08 13.08 13.71 18.55 12.31 24.00 L 6.92 24.00 C 4.59 16.03 2.33 8.04 0.00 0.07 L 0.00 0.00 Z" />
<path fill="#ffffff" opacity="1.00" d=" M 55.47 0.00 L 57.55 0.00 C 63.54 0.20 68.54 5.06 69.08 10.99 C 67.44 10.99 65.80 10.98 64.16 10.98 C 63.34 7.59 60.74 4.46 57.00 4.44 C 52.92 3.98 49.66 7.20 48.84 10.98 C 47.20 10.99 45.57 10.99 43.93 11.00 C 44.38 5.01 49.50 0.22 55.47 0.00 Z" />
<path fill="#ffffff" opacity="1.00" d=" M 94.48 0.00 L 96.54 0.00 C 102.49 0.21 107.60 5.02 108.04 10.96 C 106.41 10.97 104.78 10.98 103.15 10.98 C 102.35 7.61 99.77 4.49 96.05 4.44 C 91.97 3.96 88.65 7.18 87.84 10.98 C 86.18 10.99 84.52 10.99 82.86 11.00 C 83.49 5.05 88.44 0.19 94.48 0.00 Z" />
<path fill="#ffffff" opacity="1.00" d=" M 122.00 0.00 L 132.53 0.00 C 135.17 0.38 137.99 0.97 139.99 2.87 C 145.53 7.46 145.35 17.33 139.48 21.57 C 137.51 23.14 134.95 23.64 132.52 24.00 L 122.00 24.00 C 122.00 16.00 122.00 8.00 122.00 0.00 M 127.00 4.47 C 127.00 9.49 127.00 14.51 127.00 19.53 C 130.21 19.45 134.09 20.18 136.60 17.64 C 140.06 14.65 139.72 8.55 136.12 5.81 C 133.41 4.01 130.07 4.49 127.00 4.47 Z" />
<path fill="#ffffff" opacity="1.00" d=" M 159.00 0.00 L 175.73 0.00 C 175.73 1.50 175.73 3.00 175.74 4.50 C 171.83 4.45 167.92 4.47 164.01 4.46 C 164.00 6.15 164.00 7.85 164.01 9.54 C 167.83 9.53 171.66 9.54 175.49 9.52 C 175.47 11.01 175.46 12.51 175.46 14.00 C 171.64 14.00 167.82 14.00 164.00 14.00 C 164.00 15.85 164.00 17.69 164.01 19.54 C 167.92 19.53 171.83 19.55 175.74 19.50 C 175.73 21.00 175.73 22.50 175.73 24.00 L 159.00 24.00 C 159.00 16.00 159.00 8.00 159.00 0.00 Z" />
<path fill="#ffffff" opacity="1.00" d=" M 191.00 0.00 L 203.59 0.00 C 206.92 0.17 210.23 2.38 210.76 5.82 C 211.87 9.61 209.66 13.61 206.07 15.03 C 207.78 18.03 209.37 21.09 211.23 24.00 L 205.55 24.00 C 203.64 21.24 201.96 18.34 200.22 15.48 C 198.82 15.47 197.41 15.46 196.01 15.45 C 196.00 18.30 196.00 21.15 196.00 24.00 L 191.00 24.00 C 191.00 16.00 191.00 8.00 191.00 0.00 M 196.03 4.46 C 196.00 6.64 196.00 8.81 196.00 10.99 C 198.66 10.88 201.42 11.36 204.02 10.64 C 206.67 9.96 206.69 5.65 204.10 4.89 C 201.52 4.02 198.70 4.63 196.03 4.46 Z" />
<path fill="#ffffff" opacity="1.00" d=" M 44.20 15.14 C 45.89 15.09 47.59 15.04 49.29 15.02 C 50.58 16.67 51.80 18.71 54.03 19.16 C 57.81 20.59 61.89 18.43 63.71 15.02 C 65.39 15.02 67.08 15.01 68.76 15.01 C 67.41 20.10 62.78 23.76 57.53 24.00 L 55.45 24.00 C 50.26 23.74 45.65 20.14 44.20 15.14 Z" />
<path fill="#ffffff" opacity="1.00" d=" M 83.24 15.01 C 84.92 15.01 86.61 15.02 88.29 15.02 C 89.59 16.68 90.82 18.72 93.06 19.17 C 96.84 20.58 100.89 18.41 102.71 15.02 C 104.41 15.03 106.11 15.09 107.81 15.15 C 106.29 20.12 101.76 23.77 96.53 24.00 L 94.44 24.00 C 89.24 23.73 84.53 20.11 83.24 15.01 Z" />
</g>
<g id="#bea67cfe">
<path fill="#bea67c" opacity="1.00" d=" M 43.93 11.00 C 45.57 10.99 47.20 10.99 48.84 10.98 C 53.95 11.01 59.05 11.01 64.16 10.98 C 65.80 10.98 67.44 10.99 69.08 10.99 C 73.67 11.00 78.27 11.00 82.86 11.00 C 84.52 10.99 86.18 10.99 87.84 10.98 C 92.95 11.00 98.05 11.01 103.15 10.98 C 104.78 10.98 106.41 10.97 108.04 10.96 C 108.02 12.36 107.98 13.76 107.81 15.15 C 106.11 15.09 104.41 15.03 102.71 15.02 C 97.90 14.98 93.10 15.00 88.29 15.02 C 86.61 15.02 84.92 15.01 83.24 15.01 C 78.42 14.99 73.59 14.99 68.76 15.01 C 67.08 15.01 65.39 15.02 63.71 15.02 C 58.90 15.00 54.10 14.97 49.29 15.02 C 47.59 15.04 45.89 15.09 44.20 15.14 C 44.02 13.77 43.97 12.38 43.93 11.00 Z" />
</g>
</svg>
